<svg width="89" height="16" viewBox="0 0 89 16" fill="none" xmlns="http://www.w3.org/2000/svg">
<path d="M10.2731 11.7435H4.23662L2.8252 15.5H0.197793L6.10404 0.300109H7.25489C8.03659 0.300109 8.57945 0.683726 8.88345 1.45096L14.312 15.5H11.6629L10.2731 11.7435ZM4.95319 9.61547H9.55658L7.2766 3.44866H7.25489L4.95319 9.61547ZM18.683 15.6737C17.3512 15.6737 16.2799 15.2901 15.4693 14.5229C14.6731 13.7556 14.275 12.7423 14.275 11.4829V8.74691C14.275 7.90729 14.4559 7.16901 14.8178 6.53206C15.1797 5.88064 15.6937 5.38122 16.3596 5.03379C17.0255 4.67189 17.7927 4.49094 18.6612 4.49094H20.3984C21.6433 4.49094 22.6422 4.85284 23.3949 5.57664C24.1622 6.28597 24.5458 7.22692 24.5458 8.39948H22.0921C22.0921 7.87834 21.9328 7.45853 21.6144 7.14006C21.3104 6.80711 20.905 6.64064 20.3984 6.64064H18.683C18.1184 6.64064 17.6552 6.85054 17.2933 7.27035C16.9458 7.69015 16.7721 8.233 16.7721 8.8989V11.3309C16.7721 11.9823 16.9458 12.5107 17.2933 12.916C17.6552 13.3213 18.1256 13.524 18.7047 13.524H20.4201C20.9557 13.524 21.3828 13.3286 21.7012 12.9377C22.0342 12.5469 22.2007 12.0402 22.2007 11.4177H24.6543C24.6543 12.6916 24.2635 13.7194 23.4818 14.5012C22.7146 15.2829 21.694 15.6737 20.4201 15.6737H18.683ZM29.7953 15.6737C28.4635 15.6737 27.3923 15.2901 26.5816 14.5229C25.7855 13.7556 25.3874 12.7423 25.3874 11.4829V8.74691C25.3874 7.90729 25.5683 7.16901 25.9302 6.53206C26.2921 5.88064 26.806 5.38122 27.4719 5.03379C28.1378 4.67189 28.9051 4.49094 29.7736 4.49094H31.5108C32.7557 4.49094 33.7545 4.85284 34.5073 5.57664C35.2745 6.28597 35.6582 7.22692 35.6582 8.39948H33.2045C33.2045 7.87834 33.0452 7.45853 32.7267 7.14006C32.4227 6.80711 32.0174 6.64064 31.5108 6.64064H29.7953C29.2308 6.64064 28.7675 6.85054 28.4056 7.27035C28.0582 7.69015 27.8845 8.233 27.8845 8.8989V11.3309C27.8845 11.9823 28.0582 12.5107 28.4056 12.916C28.7675 13.3213 29.238 13.524 29.8171 13.524H31.5325C32.0681 13.524 32.4951 13.3286 32.8136 12.9377C33.1466 12.5469 33.313 12.0402 33.313 11.4177H35.7667C35.7667 12.6916 35.3759 13.7194 34.5942 14.5012C33.8269 15.2829 32.8064 15.6737 31.5325 15.6737H29.7953ZM38.5626 3.44866C38.0704 3.44866 37.6723 3.3039 37.3683 3.01438C37.0788 2.71038 36.934 2.32676 36.934 1.86353C36.934 1.40029 37.0788 1.02391 37.3683 0.734392C37.6723 0.430394 38.0704 0.278395 38.5626 0.278395C39.0548 0.278395 39.4529 0.430394 39.7569 0.734392C40.0609 1.02391 40.2129 1.40029 40.2129 1.86353C40.2129 2.32676 40.0609 2.71038 39.7569 3.01438C39.4529 3.3039 39.0548 3.44866 38.5626 3.44866ZM37.3249 4.66465H39.822V15.5H37.3249V4.66465ZM46.1255 15.6737C44.7937 15.6737 43.7225 15.2901 42.9119 14.5229C42.1012 13.7412 41.6959 12.7134 41.6959 11.4395V8.74691C41.6959 7.90729 41.8768 7.16901 42.2387 6.53206C42.6151 5.88064 43.1362 5.38122 43.8021 5.03379C44.4825 4.67189 45.2642 4.49094 46.1473 4.49094H48.0581C48.9411 4.49094 49.7156 4.67189 50.3815 5.03379C51.0619 5.38122 51.583 5.88064 51.9449 6.53206C52.3213 7.16901 52.5095 7.90729 52.5095 8.74691V11.4395C52.5095 12.7134 52.0969 13.7412 51.2718 14.5229C50.4611 15.2901 49.3754 15.6737 48.0147 15.6737H46.1255ZM47.993 13.524C48.601 13.524 49.0859 13.3213 49.4478 12.916C49.8242 12.4962 50.0124 11.9534 50.0124 11.2875V8.87719C50.0124 8.21129 49.8314 7.67568 49.4695 7.27035C49.1076 6.85054 48.6227 6.64064 48.0147 6.64064H46.1907C45.5827 6.64064 45.0977 6.85054 44.7358 7.27035C44.3739 7.67568 44.193 8.21129 44.193 8.87719V11.2875C44.193 11.9534 44.3739 12.4962 44.7358 12.916C45.0977 13.3213 45.5682 13.524 46.1473 13.524H47.993ZM57.763 15.6737C56.8365 15.6737 56.0186 15.4566 55.3093 15.0223C54.5999 14.5735 54.0498 13.9511 53.659 13.1549C53.2681 12.3442 53.0727 11.4177 53.0727 10.3755H55.5698C55.5698 11.3019 55.7725 12.0475 56.1778 12.612C56.5832 13.1621 57.1115 13.4372 57.763 13.4372H59.5001C60.166 13.4372 60.6944 13.1476 61.0852 12.5686C61.4906 11.9751 61.6932 11.1861 61.6932 10.2018V0.300109H64.2338V10.2886C64.2338 11.3743 64.0383 12.3225 63.6475 13.1332C63.2711 13.9438 62.7283 14.5735 62.0189 15.0223C61.3241 15.4566 60.5134 15.6737 59.587 15.6737H57.763ZM70.0467 15.6737C68.7149 15.6737 67.6437 15.2901 66.833 14.5229C66.0224 13.7412 65.617 12.7134 65.617 11.4395V8.74691C65.617 7.90729 65.798 7.16901 66.1599 6.53206C66.5363 5.88064 67.0574 5.38122 67.7233 5.03379C68.4037 4.67189 69.1854 4.49094 70.0684 4.49094H71.9793C72.8623 4.49094 73.6368 4.67189 74.3027 5.03379C74.9831 5.38122 75.5042 5.88064 75.8661 6.53206C76.2425 7.16901 76.4307 7.90729 76.4307 8.74691V11.4395C76.4307 12.7134 76.0181 13.7412 75.193 14.5229C74.3823 15.2901 73.2966 15.6737 71.9358 15.6737H70.0467ZM71.9141 13.524C72.5221 13.524 73.0071 13.3213 73.369 12.916C73.7454 12.4962 73.9335 11.9534 73.9335 11.2875V8.87719C73.9335 8.21129 73.7526 7.67568 73.3907 7.27035C73.0288 6.85054 72.5438 6.64064 71.9358 6.64064H70.1119C69.5039 6.64064 69.0189 6.85054 68.657 7.27035C68.2951 7.67568 68.1142 8.21129 68.1142 8.87719V11.2875C68.1142 11.9534 68.2951 12.4962 68.657 12.916C69.0189 13.3213 69.4894 13.524 70.0684 13.524H71.9141ZM82.8133 15.6737C82.35 15.6737 81.8723 15.529 81.3801 15.2394C80.9024 14.9354 80.5188 14.5591 80.2293 14.1103V15.5H77.9059V0.300109H80.403V5.6635C80.6925 5.3016 81.0617 5.01931 81.5104 4.81665C81.9592 4.59951 82.4079 4.49094 82.8567 4.49094H84.3767C85.1729 4.49094 85.8822 4.67189 86.5047 5.03379C87.1271 5.38122 87.6121 5.8734 87.9595 6.51035C88.3069 7.1473 88.4807 7.87834 88.4807 8.70348V11.2875C88.4807 12.156 88.3069 12.9233 87.9595 13.5892C87.6121 14.2551 87.1199 14.769 86.483 15.1309C85.8605 15.4928 85.1439 15.6737 84.3333 15.6737H82.8133ZM84.0727 13.4806C84.6373 13.4806 85.1005 13.2707 85.4624 12.8509C85.8243 12.4166 86.0052 11.852 86.0052 11.1572V8.85548C86.0052 8.20405 85.8315 7.68291 85.4841 7.29206C85.1367 6.88673 84.6879 6.68406 84.1378 6.68406H82.7481C82.1112 6.68406 81.5756 6.91568 81.1413 7.37892C80.707 7.82767 80.4609 8.42119 80.403 9.15947V11.2875C80.4754 11.9244 80.7215 12.4528 81.1413 12.8726C81.5756 13.2779 82.075 13.4806 82.6396 13.4806H84.0727Z" fill="#012555"/>
</svg>
